<?xml version="1.0" encoding="UTF-8"?>
<svg id="Capa_2" data-name="Capa 2" xmlns="http://www.w3.org/2000/svg" viewBox="0 0 442.88 97.88">
  <defs>
    <style>
      .cls-1 {
        fill: #f46f5e;
      }

      .cls-2 {
        fill: #6faab2;
      }
    </style>
  </defs>
  <g id="Capa_1-2" data-name="Capa 1">
    <g>
      <g>
        <path class="cls-2" d="M159.15,54.17h16.37c.32,6.65,4.33,12.14,14.57,12.14,8.34,0,13.2-3.59,13.2-9.61,0-5.07-3.48-7.39-10.24-8.76l-10.35-2.11c-11.72-2.22-21.54-7.5-21.54-20.7,0-14.25,11.51-21.65,28.51-21.65s28.4,7.6,28.4,22.81h-16.26c.21-6.65-5.17-9.71-12.46-9.71-8.55,0-11.62,4.22-11.62,8.55,0,3.38,2.11,6.65,8.76,8.02l9.5,1.9c17.42,3.59,24.08,10.35,24.08,21.54,0,15.94-13.2,22.81-30.09,22.81-19.11,0-30.83-8.97-30.83-25.24Z"/>
        <path class="cls-2" d="M232.11,63.78c0-12.14,9.93-14.78,19.43-16.16l9.29-1.37c5.07-.74,6.65-1.58,6.65-4.65v-.74c0-5.81-3.8-7.39-8.55-7.39s-9.4,1.58-9.4,7.29v1.06h-14.47v-2.53c0-10.77,7.18-16.89,24.29-16.89s23.23,5.91,23.23,17.84v38.12h-14.68v-9.71h-.63c-1.06,2.96-5.49,10.77-17.53,10.77-8.98,0-17.63-4.33-17.63-15.63ZM267.48,59.24v-6.12c-.84,1.27-3.48,1.69-5.91,2.11l-7.71,1.37c-4.75.74-6.34,3.06-6.34,5.91,0,3.38,2.22,5.91,7.5,5.91,7.29,0,12.46-4.86,12.46-9.19Z"/>
        <path class="cls-2" d="M291.98,23.44h15.73l13.73,40.12h.53l13.73-40.12h15.63l-19.96,54.91h-19.43l-19.96-54.91Z"/>
        <path class="cls-2" d="M362.63,8.55c0-4.86,4.01-8.55,8.45-8.55s8.45,3.7,8.45,8.55-4.01,8.45-8.45,8.45-8.45-3.7-8.45-8.45ZM363.37,23.44h15.42v54.91h-15.42V23.44Z"/>
        <path class="cls-2" d="M392.41,63.78c0-12.14,9.93-14.78,19.43-16.16l9.29-1.37c5.07-.74,6.65-1.58,6.65-4.65v-.74c0-5.81-3.8-7.39-8.55-7.39s-9.4,1.58-9.4,7.29v1.06h-14.47v-2.53c0-10.77,7.18-16.89,24.29-16.89s23.23,5.91,23.23,17.84v38.12h-14.68v-9.71h-.63c-1.06,2.96-5.49,10.77-17.53,10.77-8.97,0-17.63-4.33-17.63-15.63ZM427.78,59.24v-6.12c-.84,1.27-3.48,1.69-5.91,2.11l-7.71,1.37c-4.75.74-6.33,3.06-6.33,5.91,0,3.38,2.22,5.91,7.5,5.91,7.29,0,12.46-4.86,12.46-9.19Z"/>
      </g>
      <path class="cls-2" d="M0,38.83S12.67,1.82,64.35,2c11.12.04,21.99,3.28,31.19,9.52,10.42,7.07,22.81,19.21,28.79,39.03.29.96-.97,1.62-1.58.82-7.7-10.04-29.55-36.22-45.67-32.6-1.35.3-1.75,2.06-.69,2.95l18.23,15.44c1.56,1.32,2.16,3.54,1.27,5.37-.87,1.8-3.08,3.1-8.47.91-2.2-.89-4.24-2.11-6.13-3.53-5.09-3.84-19.84-14.47-27.76-15.17-1.28-.11-2.54-.32-3.81-.52-7-1.11-27.75-2.48-49.73,14.61Z"/>
      <path class="cls-1" d="M90.8,55.76h0c-4.77-5.27-12.9-5.67-18.17-.9l-7.32,6.63-6.68-7.38c-4.77-5.27-12.9-5.67-18.17-.9h0c-5.27,4.77-5.67,12.9-.9,18.17l6.68,7.38-.06.05,17.27,19.07.06-.05h0s19.07-17.27,19.07-17.27h0s7.32-6.63,7.32-6.63c5.27-4.77,5.67-12.9.9-18.17Z"/>
    </g>
  </g>
</svg>